<?xml version="1.0" encoding="UTF-8"?>
<svg id="Layer_1" data-name="Layer 1" xmlns="http://www.w3.org/2000/svg" viewBox="0 0 852.86 240">
  <defs>
    <style>
      .cls-1 {
        fill: #fff;
      }

      .cls-2 {
        stroke: #000;
        stroke-miterlimit: 10;
        stroke-width: 12px;
      }
    </style>
  </defs>
  <path class="cls-2" d="M706.86,10.65c-1.57-3.72-7.49-2.09-7.12,1.91.58,4.36-2.64,14.94,4.86,13.45,3.3-1.1,2.47-5.04,2.62-7.79-.18-2.48.56-5.24-.37-7.57Z"/>
  <path class="cls-2" d="M700.83,33.54c-.58,5.59-1.27,15.97-1.36,18.16-.04,3.32-.51,6.95.49,10.12,1.57,3.72,7.5,2.09,7.12-1.91-.64-10.07.65-14.38,1.13-26.33-.54-4.03-6.72-4.03-7.37-.05Z"/>
  <path class="cls-2" d="M701.16,75.09c.33,7.29.49,14.6.34,21.9.08,3.33,4.55,4.86,6.62,2.29,1.79-2.76.69-6.5.97-9.65-.35-5.43.41-11.17-.81-16.44-1.57-3.72-7.5-2.1-7.12,1.91Z"/>
  <path class="cls-2" d="M703.09,136.18c1.57-.52,2.66-2.18,2.55-3.84,0-.35.21-2.7.38-5.45,0,.15.46-4.88.66-5.96.08-2.32,1.41-4.92.02-7.05-1.73-2.77-6.28-1.85-6.82,1.38-.64,2.97-1.64,14.32-1.48,13.46-.07,2.26-1,5.05,1.01,6.73,1.01.91,2.42,1.12,3.69.74Z"/>
  <path class="cls-2" d="M700.75,175.78c.08,3.33,4.55,4.86,6.62,2.29,1.23-1.41.86-3.31.96-5.04-.04-2.03.11-4.05.22-6.08.13-6.44-.41-12.86-.86-19.27-.37-2.26.25-5.09-1.63-6.77-2.37-2.22-6.53-.16-6.24,3.11,1.01,10.57,1.44,21.16.92,31.76Z"/>
  <path class="cls-2" d="M707.55,211.74c.08-2.4,1.37-13.88,1.95-19.79.2-1-.01-2.07-.58-2.92-1.73-2.77-6.27-1.85-6.82,1.38-.66,7.47-1.78,14.91-2.08,22.41.55,5.42,8.29,4.3,7.53-1.07Z"/>
  <path class="cls-2" d="M817.49,40.69c.33,7.29.49,14.6.34,21.9.08,3.33,4.55,4.86,6.62,2.29,1.79-2.76.69-6.5.97-9.65-.35-5.43.41-11.17-.81-16.44-1.57-3.72-7.49-2.1-7.12,1.91Z"/>
  <path class="cls-2" d="M819.42,101.78c1.57-.52,2.66-2.18,2.55-3.84,0-.35.21-2.7.38-5.45,0,.15.46-4.88.66-5.96.07-2.32,1.41-4.92.02-7.05-1.73-2.77-6.28-1.85-6.82,1.38-.64,2.97-1.64,14.32-1.48,13.46-.07,2.26-1,5.05,1.01,6.73,1.01.91,2.42,1.12,3.69.74Z"/>
  <path class="cls-2" d="M817.08,141.38c.08,3.33,4.55,4.86,6.62,2.29,1.23-1.41.86-3.31.96-5.04-.04-2.03.11-4.05.22-6.08.13-6.44-.41-12.86-.86-19.27-.37-2.26.25-5.09-1.63-6.77-2.37-2.22-6.53-.16-6.24,3.11,1.01,10.57,1.44,21.16.92,31.76Z"/>
  <path class="cls-2" d="M823.88,177.35c.08-2.4,1.37-13.88,1.95-19.79.2-1-.01-2.07-.58-2.92-1.73-2.77-6.28-1.85-6.82,1.38-.66,7.47-1.78,14.91-2.08,22.41.55,5.42,8.29,4.3,7.53-1.07Z"/>
  <path class="cls-2" d="M824.44,212.3c.05-5.52.16-11.04,0-16.56-.1-1.92.3-4.22-1.36-5.59-2.37-2.22-6.53-.16-6.24,3.11.58,6.73-.57,14.57.49,20.95,1.57,3.72,7.49,2.09,7.12-1.91Z"/>
  <path class="cls-2" d="M436.93,61.9c1.49,1.14,3.72.74,4.92-.65.92-.99.92-2.35.97-3.63.08-.67.45-4.87.53-5.84.39-5.26.06-10.54,0-15.8-.06-1.02-.54-2-1.3-2.67-2.37-2.22-6.53-.16-6.24,3.11.14,6.56.37,12.71-.1,16.74-.15,1.51-.3,3.02-.39,4.53,0,.06-.01.15-.02.28,0,0,0,.01,0,.02,0,.15-.02.29-.03.44,0-.1.02-.22.02-.33-.24,1.43.36,3.07,1.64,3.8Z"/>
  <path class="cls-2" d="M443.86,100.75c-1.57-3.72-7.49-2.09-7.12,1.91.58,4.36-2.64,14.94,4.86,13.45,3.3-1.1,2.47-5.04,2.62-7.79-.18-2.48.56-5.24-.37-7.57Z"/>
  <path class="cls-2" d="M437.83,123.65c-.58,5.59-1.27,15.97-1.36,18.16-.04,3.32-.51,6.95.49,10.12,1.57,3.72,7.49,2.09,7.12-1.91-.64-10.07.65-14.38,1.13-26.33-.54-4.03-6.72-4.03-7.37-.05Z"/>
  <path class="cls-2" d="M438.16,165.19c.33,7.29.49,14.6.34,21.9.08,3.33,4.55,4.86,6.62,2.29,1.79-2.76.69-6.5.97-9.65-.35-5.43.41-11.17-.81-16.44-1.57-3.72-7.49-2.1-7.12,1.91Z"/>
  <path class="cls-2" d="M440.09,226.29c1.57-.52,2.66-2.18,2.55-3.84,0-.35.21-2.7.38-5.45,0,.15.46-4.88.66-5.96.07-2.32,1.41-4.92.02-7.05-1.73-2.77-6.28-1.85-6.82,1.38-.64,2.97-1.64,14.32-1.48,13.46-.07,2.26-.99,5.05,1.01,6.73,1.01.91,2.42,1.12,3.69.74Z"/>
  <path class="cls-2" d="M524.16,56.48c1.58,2.09,5.13,1.53,6.18-.82.89-2.09.33-10.36.32-17.97-.31-4.98-7.79-4.55-7.54.44.06,4.74.22,9.48.13,14.22,0,.05,0,.06,0,.1-.17,1.39-.14,3.01.92,4.03Z"/>
  <path class="cls-2" d="M530.82,67.16c-1.57-3.72-7.49-2.09-7.12,1.91.58,4.36-2.64,14.94,4.86,13.45,3.3-1.1,2.47-5.04,2.62-7.79-.19-2.48.56-5.24-.37-7.57Z"/>
  <path class="cls-2" d="M524.79,90.06c-.58,5.59-1.27,15.97-1.36,18.16-.04,3.32-.51,6.95.49,10.12,1.57,3.72,7.49,2.09,7.12-1.91-.64-10.07.65-14.38,1.13-26.33-.54-4.03-6.72-4.03-7.37-.05Z"/>
  <path class="cls-2" d="M525.12,131.6c.33,7.29.49,14.6.34,21.9.08,3.33,4.55,4.86,6.62,2.29,1.79-2.76.69-6.5.97-9.65-.35-5.43.41-11.17-.81-16.44-1.57-3.72-7.49-2.1-7.12,1.91Z"/>
  <path class="cls-2" d="M527.05,192.69c1.57-.52,2.66-2.18,2.55-3.84,0-.35.21-2.7.38-5.45,0,.15.46-4.88.66-5.96.07-2.32,1.41-4.92.02-7.05-1.73-2.77-6.28-1.85-6.82,1.38-.64,2.97-1.64,14.32-1.48,13.46-.07,2.26-.99,5.05,1.01,6.73,1.01.91,2.42,1.12,3.69.74Z"/>
  <path class="cls-2" d="M500.87,27.06c-.05,8.97.07,22.46.59,28.01,1.48,5.48,8.68,3.17,7.35-2.47-.14-5.59-.38-11.17-.39-16.77-.32-3.51.59-7.32-.43-10.68-1.57-3.72-7.49-2.1-7.12,1.91Z"/>
  <path class="cls-2" d="M508.93,66.38c-.31-4.98-7.79-4.55-7.54.44.23,4.77.17,9.55.17,14.32.04,2.61-.6,6.43,2.59,7.36,1.72.72,3.79-.25,4.6-1.89.74-1.68.22-3.61.35-5.4,0-4.94.07-9.89-.17-14.83Z"/>
  <path class="cls-2" d="M508.84,97.31c-1.57-3.72-7.49-2.09-7.12,1.91-.11,3.8-.13,7.6-.18,11.4-.5,2.55,1.17,5.36,3.95,5.15,4.55-.41,3.48-5.78,3.63-9.07-.25-3.08.71-6.46-.28-9.38Z"/>
  <path class="cls-2" d="M508.19,124.23c-.31-4.98-7.79-4.55-7.54.44-.12,5.16-.06,10.33-.25,15.48-.05,2.6-.67,6.42,2.51,7.34,1.72.72,3.79-.25,4.6-1.89.74-1.74.23-3.74.42-5.59.2-5.26.13-10.52.26-15.78Z"/>
  <path class="cls-2" d="M506.33,175.98c1.42-.95,1.89-2.79,1.43-4.4-.01-.11-.04-.26-.07-.5-.08-5.37.29-10.75.28-16.13-.31-4.98-7.79-4.55-7.54.44-.12,4.38-.06,8.75-.31,13.13-.46,4.09.98,10.16,6.2,7.45Z"/>
  <path class="cls-2" d="M503.35,204.7c1.72.72,3.79-.25,4.6-1.89.79-1.86.14-3.98.24-5.94-.31-3.56.32-7.43-.72-10.84-1.57-3.72-7.49-2.09-7.12,1.91.18,3.92.25,7.85.36,11.77-.1,2,.45,4.43,2.63,5Z"/>
  <path class="cls-2" d="M572.4,29.5c.35,1.53,1.81,2.83,3.38,2.83,2.54.34,4.5-2.36,3.9-4.76-.04-.39-.11-1.04-.09-1.42.01-.41.02-.54.02-.54.06-.77.12-1.55.16-2.33.17-3.45.31-6.9.32-10.35-.06-1.02-.54-2-1.3-2.67-2.37-2.22-6.53-.15-6.24,3.11-.02,3.97-.17,7.94-.41,11.9.09-2.35-.27,3.18.26,4.22Z"/>
  <path class="cls-2" d="M572.63,39c.32,3.8.51,7.61.7,11.41-.31,1.94,1.04,3.96,2.97,4.32,4.52.67,5-4.12,4.43-7.51-.25-2.88-.23-5.78-.55-8.66-.31-4.99-7.79-4.55-7.54.44Z"/>
  <path class="cls-2" d="M580.42,88.08c0-1.15,0-.17-.06.36.3-3.59-.19-7.2.04-10.81.02-.22.05-.53.08-.83.39-2.88.06-5.77-.12-8.65-.35-2.37.08-4.99-.81-7.22-1.57-3.72-7.49-2.1-7.12,1.91.19,4.03.7,8.06.68,12.09-.38,3.73-.44,7.49-.15,11.23-.02.62-.02.86-.02.91,0,.11-.01.17-.02.32.06,2.19-.52,4.94,1.32,6.54,1.78,1.64,4.83,1,5.86-1.19.67-1.45.3-3.11.32-4.66Z"/>
  <path class="cls-2" d="M579.8,102.48c-.07-5.13-7.79-4.86-7.54.25.07,5.13,7.79,4.86,7.54-.25Z"/>
  <path class="cls-2" d="M572.4,127.03c0,.07-.01.16-.02.3-.14,2.76-.7,7,2.58,8.04,2.39,1.01,5.21-1.23,4.98-3.81-.26-3.26-.14-2.42-.05-4.24.25-3.09-.17-6.18-.25-9.26-.3-1.94.12-4.11-.69-5.92-1.57-3.72-7.5-2.09-7.12,1.91.17,4.29.66,8.58.58,12.87,0,.04,0,.08,0,.12Z"/>
  <path class="cls-2" d="M574.09,179.06c1.78,1.64,4.83,1,5.86-1.19.87-2.97.12-6.12.46-6.37.81-4.8.36-9.64-.18-14.45-.31-4.35.11-8.73,0-13.09-.31-4.98-7.79-4.55-7.54.44.13,4.77-.43,9.57.13,14.32.24,2.4.41,4.81.56,7.22,0,.29-.01.55-.02.75-.28,2.86-.74,5.72-.56,8.6-.14,1.38.19,2.85,1.29,3.77Z"/>
  <path class="cls-2" d="M580.6,186.14c-1.57-3.72-7.49-2.1-7.12,1.91-.24,5.7-.18,11.41-.15,17.11-.14.71-.44.8.56,2.99,1.31,2.06,4.42,2.22,5.97.36.5-.28.77-1.52.9-2.32.16-1.91.12-3.82.1-5.73-.51-4.72.79-9.76-.27-14.32Z"/>
  <path class="cls-2" d="M580.78,206.11s0,.06-.01.08c0,.04,0,.07,0,.11,0-.08.01-.13.02-.2Z"/>
  <path class="cls-2" d="M580.78,206.11c.09-.64.08-.91,0,0h0Z"/>
  <path class="cls-2" d="M456.8,37.78c.05,3.44.04,6.88.31,10.32-.22,2.47,1.4,5.08,4.07,4.87,3.16-.19,3.95-3.5,3.41-6.17-.21-3.15-.2-6.31-.25-9.46-.31-4.99-7.79-4.55-7.54.44Z"/>
  <path class="cls-2" d="M456.49,76.46c.35,1.53,1.81,2.83,3.38,2.83,2.54.34,4.5-2.36,3.9-4.76-.04-.39-.11-1.04-.09-1.42.01-.41.02-.54.02-.54.06-.77.12-1.55.16-2.33.17-3.45.31-6.9.32-10.35-.06-1.02-.54-2-1.3-2.67-2.37-2.22-6.53-.15-6.24,3.11-.02,3.97-.17,7.94-.41,11.91.09-2.35-.27,3.18.26,4.22Z"/>
  <path class="cls-2" d="M456.72,85.96c.32,3.8.51,7.61.7,11.41-.31,1.94,1.04,3.96,2.97,4.32,4.52.67,5-4.12,4.43-7.51-.25-2.88-.23-5.78-.55-8.66-.31-4.99-7.79-4.55-7.54.44Z"/>
  <path class="cls-2" d="M464.51,135.04c0-1.15,0-.17-.06.36.3-3.59-.19-7.2.04-10.81.02-.22.05-.53.08-.83.39-2.88.06-5.77-.12-8.65-.35-2.37.08-4.99-.81-7.22-1.57-3.72-7.49-2.1-7.12,1.91.19,4.03.7,8.06.68,12.09-.38,3.73-.44,7.49-.15,11.23-.02.62-.02.86-.02.91,0,.11-.01.17-.02.32.06,2.19-.52,4.94,1.32,6.54,1.78,1.64,4.83,1,5.86-1.19.67-1.45.3-3.11.32-4.66Z"/>
  <path class="cls-2" d="M463.89,149.44c-.07-5.13-7.79-4.86-7.54.25.07,5.13,7.79,4.86,7.54-.25Z"/>
  <path class="cls-2" d="M456.49,173.99c0,.07-.01.16-.02.3-.14,2.76-.7,7,2.58,8.04,2.39,1.01,5.21-1.23,4.98-3.81-.26-3.26-.14-2.42-.05-4.24.25-3.09-.17-6.18-.25-9.26-.3-1.94.12-4.11-.69-5.92-1.57-3.72-7.49-2.1-7.12,1.91.17,4.29.66,8.58.58,12.87,0,.04,0,.08,0,.12Z"/>
  <path class="cls-2" d="M458.18,226.02c1.78,1.64,4.83,1,5.86-1.19.87-2.97.12-6.12.46-6.37.81-4.8.36-9.64-.18-14.45-.31-4.35.11-8.73,0-13.09-.31-4.98-7.79-4.55-7.54.44.13,4.77-.43,9.57.13,14.32.24,2.4.41,4.81.56,7.22,0,.29-.01.55-.02.75-.28,2.86-.74,5.72-.56,8.6-.14,1.38.19,2.85,1.29,3.77Z"/>
  <path class="cls-2" d="M662.74,18.33c-.33,6.42-.37,9.72-.57,14.41-.06.71-.22,2.74-.07.75-.33,1.75-.49,3.78,1.04,5.02,1.01.91,2.42,1.12,3.69.74,1.57-.52,2.66-2.18,2.55-3.84-.04.41-.13,1.54.06.12.31-2.46.17-2.89.36-5.12.17-2.88.06-5.76.3-8.64-.06-1.75.6-3.72-.24-5.34-1.57-3.72-7.49-2.1-7.12,1.91Z"/>
  <path class="cls-2" d="M661.92,79.08c0,1.08-.23,2.27.38,3.23,1.87,4.02,7.86,1.81,7.11-2.49.15-1.32-.11-2.61-.24-3.92.11-3.12-.05-6.25-.19-9.36.12-1.42.83-10.61.78-15.43-.31-4.98-7.79-4.55-7.54.44-.04,8.54-1.03,13.32-.56,22.83-.13,1.59.15,3.14.26,4.71Z"/>
  <path class="cls-2" d="M664.45,117.46c3.14,1.21,5.6-2.14,4.97-5.12-.19-2.92.04-1.48.06-5.07,0-.1,0-.14.01-.22,0-.09.02-.17.03-.33.43-3.46.28-6.94.36-10.42,0-1.93.48-4.22-1.22-5.6-2.37-2.22-6.53-.16-6.24,3.11-.18,6.38,0,8.87-.48,13.77.46.11-1.83,8.63,2.51,9.88Z"/>
  <path class="cls-2" d="M670.07,155.17c-.57-5.63-.02-11.26-.39-16.9-.2-3.91.67-8.51-.3-12.2-1.57-3.72-7.5-2.1-7.12,1.91-.09,5.74-.22,11.48.14,17.22-.28,3.36-.2,6.73.12,10.09-.64,5.74,7.9,5.85,7.55-.11Z"/>
  <path class="cls-2" d="M662.85,174.67c.03,4.28.1,8.56.03,12.84.31,4.99,7.79,4.55,7.54-.44.07-4.28,0-8.56-.03-12.84-.06-1.02-.54-2-1.3-2.67-2.37-2.23-6.53-.15-6.24,3.11Z"/>
  <path class="cls-2" d="M796.73,71.51c3.14,1.21,5.6-2.14,4.97-5.12-.19-2.92.04-1.48.06-5.07,0-.1,0-.14.01-.22,0-.09.02-.17.03-.33.43-3.46.28-6.94.36-10.42,0-1.93.48-4.22-1.22-5.6-2.37-2.22-6.53-.16-6.24,3.11-.18,6.38,0,8.87-.48,13.77.46.11-1.83,8.63,2.51,9.88Z"/>
  <path class="cls-2" d="M802.35,109.22c-.57-5.63-.02-11.26-.39-16.9-.2-3.91.67-8.51-.3-12.2-1.57-3.72-7.49-2.1-7.12,1.91-.09,5.74-.22,11.48.14,17.22-.28,3.36-.2,6.73.12,10.09-.64,5.74,7.9,5.85,7.56-.11Z"/>
  <path class="cls-2" d="M795.13,128.72c.03,4.28.1,8.56.03,12.84.31,4.99,7.79,4.55,7.54-.44.07-4.28,0-8.56-.03-12.84-.06-1.02-.54-2-1.3-2.67-2.37-2.23-6.53-.15-6.24,3.11Z"/>
  <path class="cls-2" d="M800.96,191.74c.85-3.26.1-3.2.53-5.26.01-2.98.57-2.34-.08-5.5-.03-.33-.09-1.05,0-1.6-.03,2.07.24-5.92.19-7.55-.11-4.57.62-9.18.58-15.86-.03-1.85.29-4.04-1.31-5.34-2.37-2.22-6.53-.16-6.24,3.11.23,10.82-1.31,19.5-.47,28.88-.02-.08-.02-.03.02.32.12.72-.4,3.04-.37,7.33.11,3.82,5.57,4.94,7.15,1.48Z"/>
  <path class="cls-2" d="M731.86,48.49c.54-.99.33-2.11.37-3.19,0-.18.01-.28.01-.38.11-.97.28-1.94.37-2.91.12-4.75.13-9.52.23-14.29-.23-3.39.33-7.08-.64-10.32-1.57-3.72-7.49-2.1-7.12,1.91.37,7.23.1,18.3,0,22.23-.21,2.25-.91,4.81.04,6.94,1.17,2.84,5.5,2.76,6.73,0Z"/>
  <path class="cls-2" d="M732.31,58.53c-1.57-3.72-7.49-2.09-7.12,1.91.03,3.37.23,6.73.3,10.09-.28,2.72,2.43,4.98,4.99,4.06,3.42-1.16,2.45-5.26,2.43-8.09-.32-2.61.32-5.5-.61-7.97Z"/>
  <path class="cls-2" d="M725.72,110.07c.02,1.18-.13,2.49.48,3.54,1.17,2.84,5.5,2.76,6.73,0,.72-1.54.17-3.3.32-4.95.04-3.33-.13-6.65-.31-9.98.15-3.94.02-7.87-.14-11.81-.13-1.82.14-3.98-1.42-5.26-2.37-2.22-6.53-.16-6.24,3.11.5,6.34.07,12.7.53,19.03.04,2.11.04,4.21.05,6.31Z"/>
  <path class="cls-2" d="M729.16,151.94c2.74,1.49,6.05-1.32,5.31-4.27,0-.02,0-.01,0-.03-.08-2.7-.4-5.39-.61-8.09-.4-4.4-.33-9.06-1.4-13.32-1.57-3.72-7.5-2.1-7.12,1.91.58,5.89.98,11.78,1.49,17.67.01,2.2.05,5.05,2.32,6.13Z"/>
  <path class="cls-2" d="M733.04,164.61c-1.57-3.72-7.49-2.1-7.12,1.91.13,5.13.45,17.5.61,18.9-.61,6.44,8.44,5.85,7.51-.58-.08-4.03-.37-8.06-.45-12.09-.14-2.67.36-5.62-.55-8.14Z"/>
  <path class="cls-2" d="M687.75,54.8c.54-.99.33-2.11.37-3.19,0-.18.01-.28.01-.38.1-.97.28-1.94.37-2.91.12-4.75.13-9.52.23-14.29-.23-3.39.33-7.08-.65-10.32-1.57-3.72-7.49-2.1-7.12,1.91.37,7.23.1,18.3,0,22.23-.21,2.25-.91,4.81.04,6.94,1.17,2.84,5.5,2.76,6.73,0Z"/>
  <path class="cls-2" d="M688.21,64.83c-1.57-3.72-7.49-2.09-7.12,1.91.03,3.37.23,6.73.3,10.09-.28,2.72,2.43,4.98,4.99,4.06,3.42-1.16,2.45-5.26,2.43-8.09-.32-2.61.32-5.5-.61-7.97Z"/>
  <path class="cls-2" d="M681.62,116.38c.02,1.18-.13,2.49.48,3.54,1.17,2.84,5.5,2.76,6.73,0,.72-1.54.17-3.3.32-4.95.04-3.33-.13-6.65-.31-9.98.15-3.94.02-7.87-.14-11.81-.13-1.82.14-3.98-1.42-5.26-2.37-2.22-6.53-.16-6.24,3.11.5,6.34.07,12.7.53,19.03.04,2.11.04,4.21.05,6.31Z"/>
  <path class="cls-2" d="M685.06,158.25c2.74,1.49,6.05-1.32,5.31-4.27,0-.02,0-.01,0-.03-.08-2.7-.4-5.39-.61-8.09-.4-4.4-.33-9.06-1.4-13.32-1.57-3.72-7.5-2.1-7.12,1.91.58,5.89.98,11.78,1.49,17.67.01,2.2.05,5.05,2.32,6.13Z"/>
  <path class="cls-2" d="M688.94,170.91c-1.57-3.72-7.5-2.1-7.12,1.91.13,5.13.45,17.5.61,18.9-.62,6.44,8.44,5.85,7.51-.58-.08-4.03-.37-8.06-.45-12.09-.14-2.67.36-5.62-.55-8.14Z"/>
  <path class="cls-2" d="M555.56,17.91c-1.57-3.72-7.49-2.09-7.12,1.91-.27,4.37-.53,8.76-.38,13.15.08,1.72.01,3.72,1.45,4.91,2.37,2.23,6.53.15,6.24-3.11-.4-4.01-.14-8.06.02-12.08-.05-1.57.61-3.34-.22-4.78Z"/>
  <path class="cls-2" d="M554.43,45.97c-2.37-2.23-6.53-.15-6.24,3.11.14,1.07.15,5.58.17,6.75-.31,2.46-.54,5.83,2.38,6.66,1.72.72,3.79-.25,4.6-1.89.85-3.08.13-1.77.57-5.31-.31-3,.81-6.99-1.47-9.32Z"/>
  <path class="cls-2" d="M554.9,99.1c.54-.99.33-2.11.37-3.19,0-.18.01-.28.01-.38.11-.97.28-1.94.37-2.91.12-4.75.13-9.52.23-14.29-.23-3.39.33-7.08-.64-10.32-1.57-3.72-7.5-2.1-7.12,1.91.37,7.23.1,18.3,0,22.23-.21,2.25-.91,4.81.04,6.94,1.17,2.84,5.5,2.76,6.73,0Z"/>
  <path class="cls-2" d="M555.35,109.13c-1.57-3.72-7.49-2.09-7.12,1.91.03,3.37.23,6.73.3,10.09-.28,2.72,2.43,4.98,4.99,4.06,3.42-1.16,2.45-5.26,2.43-8.09-.32-2.61.32-5.5-.61-7.97Z"/>
  <path class="cls-2" d="M548.76,160.68c.02,1.18-.13,2.49.48,3.54,1.17,2.84,5.5,2.76,6.73,0,.72-1.54.17-3.3.32-4.95.04-3.33-.13-6.65-.31-9.98.16-3.94.02-7.87-.14-11.81-.13-1.82.14-3.98-1.42-5.26-2.37-2.22-6.53-.16-6.24,3.11.5,6.34.07,12.7.53,19.03.04,2.11.04,4.21.05,6.31Z"/>
  <path class="cls-2" d="M552.2,202.55c2.74,1.49,6.05-1.32,5.31-4.27,0-.02,0-.01,0-.03-.08-2.7-.4-5.39-.61-8.09-.4-4.4-.33-9.06-1.4-13.32-1.57-3.72-7.5-2.1-7.12,1.91.58,5.89.98,11.78,1.49,17.67.01,2.2.05,5.05,2.32,6.13Z"/>
  <path class="cls-2" d="M750.21,16.26c-.58,5.59-1.27,15.97-1.36,18.16-.04,3.32-.51,6.95.49,10.12,1.57,3.72,7.5,2.09,7.12-1.91-.64-10.07.65-14.38,1.12-26.33-.54-4.03-6.72-4.03-7.37-.05Z"/>
  <path class="cls-2" d="M750.54,57.8c.33,7.29.49,14.6.34,21.9.08,3.33,4.55,4.86,6.62,2.29,1.79-2.76.69-6.5.97-9.65-.35-5.43.41-11.17-.81-16.44-1.57-3.72-7.49-2.1-7.12,1.91Z"/>
  <path class="cls-2" d="M752.47,118.89c1.57-.52,2.66-2.18,2.55-3.84,0-.35.21-2.7.38-5.45,0,.15.46-4.88.66-5.96.08-2.32,1.41-4.92.02-7.05-1.73-2.77-6.28-1.85-6.82,1.38-.64,2.97-1.65,14.32-1.48,13.46-.07,2.26-1,5.05,1.01,6.73,1.01.91,2.42,1.12,3.69.74Z"/>
  <path class="cls-2" d="M750.13,158.49c.08,3.33,4.55,4.86,6.62,2.29,1.23-1.41.86-3.31.96-5.04-.04-2.03.11-4.05.22-6.08.13-6.44-.41-12.86-.86-19.27-.37-2.26.25-5.09-1.63-6.77-2.37-2.22-6.53-.16-6.24,3.11,1.01,10.57,1.44,21.16.92,31.76Z"/>
  <path class="cls-2" d="M756.93,194.46c.08-2.4,1.37-13.88,1.95-19.79.2-1-.01-2.07-.58-2.92-1.73-2.77-6.28-1.85-6.82,1.38-.66,7.47-1.78,14.91-2.08,22.41.55,5.42,8.29,4.3,7.53-1.07Z"/>
  <path class="cls-2" d="M757.49,229.41c.05-5.52.16-11.04,0-16.56-.09-1.92.3-4.22-1.36-5.59-2.37-2.22-6.53-.15-6.24,3.11.58,6.73-.57,14.57.49,20.95,1.57,3.72,7.5,2.09,7.12-1.91Z"/>
  <path class="cls-2" d="M780.77,35.33c-1.57-3.72-7.49-2.09-7.12,1.91.03,3.37.23,6.73.3,10.09-.28,2.72,2.43,4.98,4.99,4.06,3.42-1.16,2.45-5.26,2.43-8.09-.32-2.61.32-5.5-.61-7.97Z"/>
  <path class="cls-2" d="M774.18,86.87c.02,1.18-.13,2.49.48,3.54,1.17,2.84,5.5,2.76,6.73,0,.72-1.54.17-3.3.32-4.95.04-3.33-.13-6.65-.31-9.98.15-3.94.02-7.87-.14-11.81-.13-1.82.14-3.98-1.42-5.26-2.37-2.22-6.53-.16-6.24,3.11.5,6.34.07,12.7.53,19.03.04,2.11.04,4.21.05,6.31Z"/>
  <path class="cls-2" d="M777.61,128.74c2.74,1.49,6.05-1.32,5.31-4.27,0-.02,0-.01,0-.03-.08-2.7-.4-5.39-.61-8.09-.4-4.4-.33-9.06-1.4-13.32-1.57-3.72-7.5-2.1-7.12,1.91.58,5.89.98,11.78,1.49,17.67.01,2.2.05,5.05,2.32,6.13Z"/>
  <path class="cls-2" d="M781.49,141.41c-1.57-3.72-7.49-2.1-7.12,1.91.13,5.13.45,17.5.61,18.9-.62,6.44,8.44,5.85,7.51-.58-.08-4.03-.37-8.06-.45-12.09-.14-2.67.36-5.62-.55-8.14Z"/>
  <path class="cls-2" d="M782.05,212.83c1.43-1.72.79-4.09.9-6.16-.12-4.08-.14-7.8-.62-13.87-.28-4.18.66-8.67-.43-12.69-1.57-3.72-7.49-2.1-7.12,1.91-.17,11.18.64,19.09.64,28.52.08,3.33,4.55,4.86,6.62,2.29Z"/>
  <path class="cls-2" d="M625.88,28.19c-2.37-2.23-6.53-.15-6.24,3.11.14,1.07.15,5.58.17,6.75-.31,2.46-.54,5.83,2.38,6.66,1.72.72,3.79-.25,4.6-1.89.85-3.08.13-1.77.57-5.31-.31-3,.81-6.99-1.47-9.32Z"/>
  <path class="cls-2" d="M626.35,81.32c.54-.99.33-2.11.37-3.19,0-.18.01-.28.01-.38.11-.97.28-1.94.37-2.91.12-4.75.13-9.52.23-14.29-.23-3.39.33-7.08-.64-10.32-1.57-3.72-7.49-2.1-7.12,1.91.37,7.23.1,18.3,0,22.23-.21,2.25-.91,4.81.04,6.94,1.17,2.84,5.5,2.76,6.73,0Z"/>
  <path class="cls-2" d="M626.8,91.35c-1.57-3.72-7.49-2.09-7.12,1.91.03,3.37.23,6.73.3,10.09-.28,2.72,2.43,4.98,4.99,4.06,3.42-1.16,2.45-5.26,2.43-8.09-.32-2.61.32-5.5-.61-7.97Z"/>
  <path class="cls-2" d="M620.21,142.89c.02,1.18-.13,2.49.48,3.54,1.17,2.84,5.5,2.76,6.73,0,.72-1.54.17-3.3.32-4.95.04-3.33-.13-6.65-.31-9.98.15-3.94.02-7.87-.14-11.81-.13-1.82.14-3.98-1.42-5.26-2.37-2.22-6.53-.16-6.24,3.11.5,6.34.07,12.7.53,19.03.04,2.11.04,4.21.05,6.31Z"/>
  <path class="cls-2" d="M623.65,184.76c2.74,1.49,6.05-1.32,5.31-4.27,0-.02,0-.01,0-.03-.08-2.7-.4-5.39-.61-8.09-.4-4.4-.33-9.06-1.4-13.32-1.57-3.72-7.5-2.1-7.12,1.91.58,5.89.98,11.78,1.49,17.67.01,2.2.05,5.05,2.32,6.13Z"/>
  <path class="cls-2" d="M627.53,197.43c-1.57-3.72-7.49-2.1-7.12,1.91.13,5.13.45,17.5.61,18.9-.62,6.44,8.44,5.85,7.51-.58-.08-4.03-.37-8.06-.45-12.09-.14-2.67.36-5.62-.55-8.14Z"/>
  <path class="cls-2" d="M646.47,18.25c-2.37-2.23-6.53-.15-6.24,3.11.14,1.07.15,5.58.17,6.75-.31,2.46-.54,5.83,2.38,6.66,1.72.72,3.79-.25,4.6-1.89.85-3.08.13-1.77.57-5.31-.31-3,.81-6.99-1.47-9.32Z"/>
  <path class="cls-2" d="M646.93,71.38c.54-.99.33-2.11.37-3.19,0-.18.01-.28.01-.38.11-.97.28-1.94.37-2.91.12-4.75.13-9.52.23-14.29-.23-3.39.33-7.08-.64-10.32-1.57-3.72-7.49-2.1-7.12,1.91.37,7.23.1,18.3,0,22.23-.21,2.25-.91,4.81.04,6.94,1.17,2.84,5.5,2.76,6.73,0Z"/>
  <path class="cls-2" d="M647.39,81.41c-1.57-3.72-7.49-2.09-7.12,1.91.03,3.37.23,6.73.3,10.09-.28,2.72,2.43,4.98,4.99,4.06,3.42-1.16,2.45-5.26,2.43-8.09-.32-2.61.32-5.5-.61-7.97Z"/>
  <path class="cls-2" d="M640.8,132.95c.02,1.18-.13,2.49.48,3.54,1.17,2.84,5.5,2.76,6.73,0,.72-1.54.17-3.3.32-4.95.04-3.33-.13-6.65-.31-9.98.16-3.94.02-7.87-.14-11.81-.13-1.82.14-3.98-1.42-5.26-2.37-2.22-6.53-.16-6.24,3.11.5,6.34.07,12.7.53,19.03.04,2.11.04,4.21.05,6.31Z"/>
  <path class="cls-2" d="M644.24,174.83c2.74,1.49,6.05-1.32,5.31-4.27,0-.02,0-.01,0-.03-.08-2.7-.4-5.39-.61-8.09-.4-4.4-.33-9.06-1.4-13.32-1.57-3.72-7.5-2.1-7.12,1.91.58,5.89.98,11.78,1.49,17.67.01,2.2.05,5.05,2.32,6.13Z"/>
  <path class="cls-2" d="M648.12,187.49c-1.57-3.72-7.5-2.1-7.12,1.91.13,5.13.45,17.5.61,18.9-.62,6.44,8.44,5.85,7.51-.58-.08-4.03-.37-8.06-.45-12.09-.14-2.67.36-5.62-.55-8.14Z"/>
  <path class="cls-2" d="M487.84,40.68c-.05-3.96-.24-7.92-.4-11.88-.31-4.99-7.79-4.55-7.54.44.16,3.97.35,7.93.4,11.9.23,1.42-.21,3.02.52,4.31.55,1.39,2.13,2.22,3.57,2.13,3.54-.22,3.88-4.07,3.44-6.9Z"/>
  <path class="cls-2" d="M486.56,55.88c-1.57-3.72-7.49-2.09-7.12,1.91-.27,4.37-.53,8.76-.38,13.15.08,1.72.01,3.72,1.45,4.91,2.37,2.23,6.53.15,6.24-3.11-.4-4.01-.14-8.06.02-12.08-.05-1.57.61-3.34-.22-4.78Z"/>
  <path class="cls-2" d="M485.42,83.94c-2.37-2.23-6.53-.15-6.24,3.11.14,1.07.15,5.58.17,6.75-.31,2.46-.54,5.83,2.38,6.66,1.72.72,3.79-.25,4.6-1.89.85-3.08.13-1.77.57-5.31-.31-3,.81-6.99-1.47-9.32Z"/>
  <path class="cls-2" d="M485.89,137.07c.54-.99.33-2.11.37-3.19,0-.18.01-.28.01-.38.11-.97.28-1.94.37-2.91.12-4.75.13-9.52.23-14.29-.23-3.39.33-7.08-.65-10.32-1.57-3.72-7.49-2.1-7.12,1.91.37,7.23.1,18.3,0,22.23-.21,2.25-.91,4.81.04,6.94,1.17,2.84,5.5,2.76,6.73,0Z"/>
  <path class="cls-2" d="M486.34,147.1c-1.57-3.72-7.49-2.09-7.12,1.91.03,3.37.23,6.73.3,10.09-.28,2.72,2.43,4.98,4.99,4.06,3.42-1.16,2.45-5.26,2.43-8.09-.32-2.61.32-5.5-.61-7.97Z"/>
  <path class="cls-2" d="M479.76,198.65c.02,1.18-.13,2.49.48,3.54,1.17,2.84,5.5,2.76,6.73,0,.72-1.54.17-3.3.32-4.95.04-3.33-.13-6.65-.31-9.98.15-3.94.02-7.87-.14-11.81-.13-1.82.14-3.98-1.42-5.26-2.37-2.22-6.53-.16-6.24,3.11.5,6.34.07,12.7.53,19.03.04,2.11.04,4.21.05,6.31Z"/>
  <path class="cls-2" d="M602.42,10.45c-1.57-3.72-7.49-2.09-7.12,1.91-.27,4.37-.53,8.76-.38,13.15.08,1.72.01,3.72,1.45,4.91,2.37,2.23,6.53.15,6.24-3.11-.4-4.01-.14-8.06.02-12.08-.05-1.57.61-3.34-.22-4.78Z"/>
  <path class="cls-2" d="M601.28,38.51c-2.37-2.23-6.53-.15-6.24,3.11.14,1.07.15,5.58.17,6.75-.31,2.46-.54,5.83,2.38,6.66,1.72.72,3.79-.25,4.6-1.89.85-3.08.13-1.77.57-5.31-.31-3,.81-6.99-1.47-9.32Z"/>
  <path class="cls-2" d="M601.75,91.64c.54-.99.33-2.11.37-3.19,0-.18.01-.28.01-.38.1-.97.28-1.94.37-2.91.12-4.75.13-9.52.23-14.29-.23-3.39.33-7.08-.64-10.32-1.57-3.72-7.49-2.1-7.12,1.91.37,7.23.1,18.3,0,22.23-.21,2.25-.91,4.81.04,6.94,1.17,2.84,5.5,2.76,6.73,0Z"/>
  <path class="cls-2" d="M602.2,101.67c-1.57-3.72-7.49-2.09-7.12,1.91.03,3.37.23,6.73.3,10.09-.28,2.72,2.43,4.98,4.99,4.06,3.42-1.16,2.45-5.26,2.43-8.09-.32-2.61.32-5.5-.61-7.97Z"/>
  <path class="cls-2" d="M595.61,153.22c.02,1.18-.13,2.49.48,3.54,1.17,2.84,5.5,2.76,6.73,0,.72-1.54.17-3.3.32-4.95.04-3.33-.13-6.65-.31-9.98.15-3.94.02-7.87-.14-11.81-.13-1.82.14-3.98-1.42-5.26-2.37-2.22-6.53-.16-6.24,3.11.5,6.34.07,12.7.53,19.03.04,2.11.04,4.21.05,6.31Z"/>
  <path class="cls-2" d="M599.05,195.09c2.74,1.49,6.05-1.32,5.31-4.27,0-.02,0-.01,0-.03-.08-2.7-.4-5.39-.61-8.09-.4-4.4-.33-9.06-1.4-13.32-1.57-3.72-7.5-2.1-7.12,1.91.58,5.89.98,11.78,1.49,17.67.01,2.2.05,5.05,2.32,6.13Z"/>
  <path class="cls-2" d="M602.93,207.75c-1.57-3.72-7.5-2.1-7.12,1.91.13,5.13.45,17.5.61,18.9-.62,6.44,8.44,5.85,7.51-.58-.08-4.03-.37-8.06-.45-12.09-.14-2.67.36-5.62-.55-8.14Z"/>
  <path class="cls-2" d="M832.5,156.62c-5.73-.27-8.05-.14-12.15-.58-2.78-.48-6.29-.92-7.07,2.67-.77,5.27,5.6,4.78,9.1,5.12,3.68-.07,8.62.97,12,0,3.68-1.59,2.07-7.58-1.88-7.2Z"/>
  <path class="cls-2" d="M810,161.58c2.2-2.4.15-6.61-3.07-6.31-5.53.1-19.11-.36-20.85-.33-7.74-2.25-9.36,7.4-1.56,7.48,5.87.29,11.75.39,17.63.45,2.59-.26,5.88.91,7.84-1.29Z"/>
  <path class="cls-2" d="M742.21,161.81c1.69,1.4,4.1.92,6.14,1.25,5.28.38,10.57.68,15.86.75,1.86-.01,4.06.36,5.37-1.3,2.2-2.4.15-6.61-3.07-6.31-9.1.11-15.27-.75-22.53-.99-3.04.39-4.1,4.68-1.77,6.6Z"/>
  <path class="cls-2" d="M732.65,162.24c2.2-2.4.15-6.61-3.07-6.31-5.92.27-12.16-.47-17.92.89-3.68,1.59-2.07,7.58,1.88,7.2,4.72-.37,9.45-.44,14.18-.45,1.73,0,3.72.2,4.93-1.33Z"/>
  <path class="cls-2" d="M692.4,163.6c1.8.16,3.9.49,5.17-1.14,2.2-2.4.15-6.61-3.07-6.31-6.93-.53-13.89-.4-20.84-.51-4.93.32-4.5,7.88.43,7.63,6.1.1,12.22.02,18.31.34Z"/>
  <path class="cls-2" d="M635.14,158.45c1.12,3.39,5.16,2.48,7.92,2.83,5.92.34,11.85.43,17.77.69,4.93-.32,4.5-7.88-.43-7.63-6.21-.27-12.44-.36-18.65-.74-1.55.04-3.28-.6-4.7.23-1.74.72-2.48,2.88-1.92,4.62Z"/>
  <path class="cls-2" d="M625.7,162.53c3.68-1.59,2.07-7.58-1.88-7.2-3.31.36-8.69-1.64-10.16,2.5-1.24,3.67,2.49,5.59,5.63,5.04,2.1-.17,4.46.56,6.41-.34Z"/>
  <path class="cls-2" d="M608.5,162.03c2.2-2.4.15-6.61-3.07-6.31-6.85.64-13.71.47-20.57.27-.3-.04-.69-.1-.97-.18-.99-.21-2.05.01-2.88.58-3.15,2.1-1.37,7.1,2.3,7.08,6.34.35,12.7.5,19.04.11,2.08-.25,4.64.24,6.16-1.55Z"/>
  <path class="cls-2" d="M568.09,163.17c3.68-1.59,2.07-7.58-1.88-7.2-3.25-.1-6.49-.3-9.74-.39-2.45-.47-5.05,1.35-4.84,4,.22,3.7,4.11,3.75,6.92,3.68,3.13-.16,6.57.93,9.55-.09Z"/>
  <path class="cls-2" d="M513.76,161.66c1.33,1.17,3.13.94,4.78.99,5.91-.09,11.82-.36,17.73-.45,1.87-.1,4.1.27,5.43-1.39,2.2-2.4.15-6.61-3.07-6.31-7.96.48-16.23-.11-24.04.88-2.42,1-2.8,4.65-.81,6.27Z"/>
  <path class="cls-2" d="M486.69,159.16c.12,2.05,1.95,3.74,3.99,3.59,4.19-.1,8.72,1.31,12.76.29,3.68-1.59,2.07-7.58-1.88-7.2-3.77-.25-7.54-.48-11.31-.72-2.03.08-3.72,2-3.56,4.04Z"/>
  <path class="cls-2" d="M473.74,156.23c-6.6-.37-13.29-1.23-19.89-.62-6.16.11-5.17,9.09.83,7.57,7.17-.45,12.46.3,17.53.54.99.21,2.05-.01,2.88-.58,2.73-1.75,1.83-6.35-1.36-6.9Z"/>
  <path class="cls-2" d="M437.15,161.62c2.2-2.4.15-6.61-3.07-6.31-3.88.04-7.76.12-11.64.18v7.63c4.03-.05,8.05-.14,12.08-.18,1.01-.06,1.98-.54,2.64-1.31Z"/>
  <path class="cls-2" d="M808.3,32.41c3.68-1.59,2.07-7.58-1.88-7.2-6.48-.21-12.94-.62-19.42-.28-4.93.32-4.49,7.88.43,7.62,3.26.1,6.52-.43,9.78-.13,3.63-.01,7.6,1,11.09-.02Z"/>
  <path class="cls-2" d="M773.95,25.31c-4.18-.14-8.76-.41-10.27-.56-2.56-.41-6.31-1.05-7.24,2.21-1.13,5.29,3.81,5.04,6.05,5.31,3.96.32,7.93.52,11.9.66,1.01-.06,1.98-.54,2.64-1.31,2.2-2.4.15-6.61-3.07-6.31Z"/>
  <path class="cls-2" d="M713.24,29.37c.51,1.59,2.15,2.7,3.8,2.58.04,0,.07,0,.1,0,2.33.49,4.64,1.03,7.04.75,3.85.62,15.18.11,22.35-.2,4.92-.32,4.5-7.88-.43-7.62-4.48-.06-8.93.55-13.4.58-5.2,0-5.76-.42-10.8-.33-.69-.16-2.76-.54-3.34-.7-3.1-.8-6.39,1.55-5.32,4.94Z"/>
  <path class="cls-2" d="M686.58,26.61c-2.2,2.4-.15,6.61,3.07,6.31,3.7.17,7.4-.15,11.1-.24,2.04-.18,4.54.36,6.01-1.44,2.2-2.4.15-6.61-3.07-6.31-4.08.13-8.15.33-12.22.42-1.72-.07-3.69-.28-4.89,1.25Z"/>
  <path class="cls-2" d="M676.96,32.16c2.2-2.4.15-6.61-3.07-6.31-5.53.11-11.91.33-14.68.06-3.44-.09-6.98-.7-10.36.16-3.54.5-4.32,5.7-1.07,7.21.83.61,2.74.26,3.53.05,7.22-.11,11.2.61,19.56.23,2.07-.16,4.59.41,6.09-1.4Z"/>
  <path class="cls-2" d="M632.61,27.16c-3.93-.18-9.6-.32-10.59-.51-1.35-.22-2.82-.45-4,.43-2.74,1.75-1.83,6.35,1.36,6.9,3.6.51,7.25.55,10.89.67,1.4-.04,2.96.47,4.22-.3,3.68-1.58,2.07-7.58-1.88-7.2Z"/>
  <path class="cls-2" d="M587.46,26.53c-.98.11-1.93.75-2.41,1.62-1.88,2.58.49,6.21,3.54,5.97,5.25.24,10.52-.1,15.75-.58,2.01-.34,4.47.08,5.93-1.65,2.2-2.4.15-6.61-3.07-6.31-5.83.66-11.69,1.03-17.56.99-.56-.09-1.75-.21-2.18-.03Z"/>
  <path class="cls-2" d="M559.6,32.53c5.23-.12,10.46-.34,15.7-.33,4.93-.32,4.49-7.88-.43-7.63-5.23-.01-10.46.2-15.7.33-1.01.06-1.98.54-2.64,1.31-2.2,2.4-.15,6.61,3.07,6.31Z"/>
  <path class="cls-2" d="M523.5,26.14c-1.74.72-2.48,2.88-1.91,4.62,1.07,3.27,4.97,2.58,7.67,2.75,5.82.12,11.63-.36,17.44-.46,4.92-.32,4.5-7.88-.43-7.63-5.19.09-10.37.48-15.55.48-2.37.25-5-.7-7.21.23Z"/>
  <path class="cls-2" d="M495.37,31.36c1.31,3.79,5.85,2.25,8.88,2.49,3.1-.21,6.49.41,9.45-.6,3.68-1.59,2.07-7.58-1.88-7.2-3.71.19-7.42.17-11.13.2-3.17-.37-6.35,1.55-5.31,5.11Z"/>
  <path class="cls-2" d="M478.98,34.15c2.51-.34,5.68.65,7.57-1.47,2.2-2.4.15-6.61-3.07-6.31-6.56.2-13.12.37-19.67.85-2.72-.09-5.96.89-5.77,4.22.4,4.37,4.88,3.57,8.01,3.28,4.31-.31,8.62-.46,12.94-.58Z"/>
  <path class="cls-2" d="M843.2,115.94c-3.12-.38-6.3-.47-9.43-.14-.46.04-1.27.02-1.5.01-6.13-.61-12.24.18-18.37.35-1.88-.14-8.26-1.12-11.68-.72-.61.07-2.71.05-3.17.07-3.55-.38-7.08-.67-10.64-.34-3.42-.16-5.22,4.52-2.56,6.71,2.16,1.78,5.06.49,7.58.73.2.01.31.02.43.03.06.01.25.03.74.08,3.52.52,7.04.42,10.58.25-.11,0-.28-.02-.45-.03,4.25.2,4.09.4,8.79.83,6.02.07,12.02-1,18.05-.4-2.18-.01,4.15.15,5.46-.14,3.76-.18,3.89.45,6.14.18,3.97-.54,3.99-6.8.05-7.46Z"/>
  <path class="cls-2" d="M768.17,123.55c3.47-.04,6.93-.2,10.39-.44,1.01-.06,1.98-.54,2.64-1.31,2.2-2.4.15-6.61-3.07-6.31-3.37.2-6.74.43-10.12.41-5.12.04-4.95,7.87.16,7.65Z"/>
  <path class="cls-2" d="M735.12,115.92c-4.72.17-3.73-.9-9.36.39-2.42,1-2.8,4.64-.81,6.27,1.25,1.09,2.95,1.02,4.51.87.18-.03.39-.07.6-.11.2-.02.33-.03.42-.03.22.02.45.04.67.05.24.02.48.04.72.06,3.7.26,7.39.23,11.07-.18,3.27-.05,6.53-.17,9.8-.27,1.76-.06,3.8.16,5.03-1.38,2.2-2.4.15-6.61-3.07-6.31-6.54.03-13.06.65-19.57.64Z"/>
  <path class="cls-2" d="M706.46,124.37c2.97-.32,7.5-.28,10.13-1.12,3.68-1.59,2.07-7.58-1.88-7.2-1.43.06-7.59.61-8.25.73-5.22-.46-10.83-.27-13.41-.69-4.84-.97-6.35,6.45-1.52,7.48,4.28.56,8.62.41,12.92.66.65.05,1.63.12,2.01.14Z"/>
  <path class="cls-2" d="M661.86,123.56c5.92-.46,13.31.21,18.89-.94,3.68-1.59,2.07-7.58-1.88-7.2-10.33.21-24.35.96-31.42.82-3.04.39-4.1,4.68-1.77,6.6,1.72,1.4,4.18,1.04,6.25,1.11,3.31-.13,6.62-.27,9.93-.39Z"/>
  <path class="cls-2" d="M633.86,123.19c3.68-1.59,2.07-7.58-1.88-7.2-4.21.32-9.19-.84-13.16.35-4.25,2.23-1.51,8.23,3,7.15,3.96-.29,8.24.81,12.05-.29Z"/>
  <path class="cls-2" d="M608.08,123.07c3.68-1.59,2.07-7.58-1.88-7.2-8.28-.33-19.99,0-25.06-.12-1.16,0-2.34-.46-3.47-.17-2.61.32-3.93,3.76-2.42,5.86,1.86,2.51,5.77,1.73,8.55,2.06,5.13-.28,10.26-.26,15.39-.12,2.92-.27,6.12.7,8.89-.32Z"/>
  <path class="cls-2" d="M562.97,124.25c1.68-.02,3.6.11,4.76-1.36,2.2-2.4.15-6.61-3.07-6.31-5.7.23-9.43.27-13.01.25-5.03,1.17-3.35,8.19,1.65,7.61,3.23.21,6.44-.15,9.67-.19Z"/>
  <path class="cls-2" d="M536.13,116.3c-5.32-.2-10.65-.28-15.97-.44-.43,0-.43,0-.27.01-2.32-.16-2.45-.09-3.67-.31-1.61-.33-3.54.05-4.39,1.6-1.57,2.08-.16,5.4,2.36,5.84,3.41.45,4.55.36,5.96.48,3.33.15,6.66.13,10,.24,2.58-.13,5.44.76,7.87-.21,3.68-1.59,2.07-7.58-1.88-7.2Z"/>
  <path class="cls-2" d="M474.53,121.99c3.02.91,2.07.04,4.27.68,4.25.97,8.59.79,12.9.39,4.79-.26,9.87.18,14.51-1.03,3.68-1.58,2.07-7.58-1.88-7.2-4.69.43-9.39.54-14.09.65-3.85.32-4.49.46-6.63.2-2.98-.08-6.19-1.75-9.07-.51-2.81,1.18-2.73,5.56,0,6.81Z"/>
  <path class="cls-2" d="M465.85,123.09c3.68-1.59,2.07-7.58-1.88-7.2-3.98-.06-7.97-.08-11.96.07-2.45-.34-5.02,1.39-4.81,4.06.44,4.78,5.91,3.42,9.22,3.47,3.1-.31,6.49.61,9.43-.39Z"/>
  <path class="cls-2" d="M433.16,123.72c4.92-.32,4.5-7.88-.43-7.63-3.43-.34-6.86-.45-10.29-.43v7.64c3.57-.05,7.15.03,10.73.41Z"/>
  <path class="cls-2" d="M770.6,184.43c.77,2.53,3.46,2.77,5.68,2.49,4.68.09,7.16.26,9.81.48,4.84.97,6.35-6.45,1.52-7.48-4.01-.34-8.03-.56-12.06-.62-3.01-.33-5.98,1.89-4.95,5.14Z"/>
  <path class="cls-2" d="M727.09,180.88c-2.06,1.6-1.51,5.19.81,6.26,3.02.93,2.28-.11,5.89.19,3.59.18,11.95.37,18.46-.09,2.59-.44,5.89.63,7.87-1.53,2.2-2.4.15-6.61-3.07-6.31-8.12.36-17.24.8-22.58.31-2.42.14-5.4-.52-7.38,1.18Z"/>
  <path class="cls-2" d="M718.17,186.49c2.2-2.4.15-6.61-3.07-6.31-4.21.21-8.28.38-9.92.52-2.61.32-3.93,3.76-2.42,5.86,1.1,1.69,3.14,1.79,4.96,1.7,2.17-.16,4.34-.33,6.52-.41,1.43.03,2.98-.16,3.94-1.36Z"/>
  <path class="cls-2" d="M657.87,187.23c2.28.8,4.85.27,7.23.47,1.38.1,5.45.5,9.42.18,3.28.02,6.55-.23,9.83-.24,2.53-.28,5.33.36,7.71-.58,3.67-1.58,2.07-7.58-1.88-7.2-11.39.31-19.92.67-29.47.14-4.49-.88-6.97,4.92-2.85,7.22Z"/>
  <path class="cls-2" d="M628.64,184.58c.33,3.67,3.71,3.75,6.58,3.53,3.57-.02,7.13-.31,10.7-.33,4.93-.32,4.49-7.88-.43-7.63-3.44.03-6.88.27-10.32.34-2.95-.28-6.67.31-6.53,4.09Z"/>
  <path class="cls-2" d="M593.75,189.02c4.02.56,19.41-.87,27.27-.88,4.92-.32,4.5-7.88-.43-7.63-9.75.41-19.56.67-29.26,1.28-4.67,1.62-2.26,8.8,2.43,7.23Z"/>
  <path class="cls-2" d="M556.34,182.11c-2.2,2.4-.15,6.61,3.07,6.31,4.11.05,8.22-.03,12.34-.08,2.51-.03,3.58.6,7.77.54,3.98-.55,3.98-6.8.05-7.46-5.48-.78-10.99-.78-16.51-.56-2.25-.02-5.05-.71-6.72,1.25Z"/>
  <path class="cls-2" d="M548.17,188.64c3.68-1.59,2.07-7.58-1.88-7.2-9.9.47-20.85.12-27.96.06-3.29.08-4.81,4.61-2.26,6.7,1.29,1.18,3.01.89,4.61.91.23.01.36.02.43.02.17.01.39.03.7.05,3.52.27,7.03-.07,10.55.06,5.21-.04,10.75.56,15.82-.59Z"/>
  <path class="cls-2" d="M490.34,187.95c1.59,1.35,3.85.96,5.79,1.16,3.3-.18,6.91.86,10.06-.14,3.68-1.59,2.07-7.58-1.88-7.2-5.16-.06-9.43-.5-12.19-.42-3.04.39-4.1,4.68-1.77,6.6Z"/>
  <path class="cls-2" d="M470.7,189.1c3.29-.46,7.52,1.27,10.14-1.26,2.2-2.4.15-6.61-3.07-6.31-6.06-.32-12.07.41-18.12.68-5.4.12-12.36-.2-14.85,0-2.61.32-3.93,3.76-2.42,5.86,1.99,2.71,5.82,1.42,8.69,1.76,6.55.12,13.1-.07,19.62-.73Z"/>
  <path class="cls-2" d="M798.44,136.42c-.98-.13-2,0-2.82.59-3.87,3.29-.53,7.8,4.01,7.03,11.91-.45,23.78-1.8,35.72-1.93,5.78.72,6.74-7.52.87-7.68-9.71.27-19.41.72-29.08,1.65-2.89.19-5.79.21-8.69.34Z"/>
  <path class="cls-2" d="M764.37,139.81c.77,2.53,3.46,2.77,5.68,2.49,4.68.09,7.16.26,9.81.48,4.84.97,6.35-6.45,1.52-7.48-4.01-.34-8.03-.56-12.06-.62-3.01-.33-5.98,1.89-4.95,5.14Z"/>
  <path class="cls-2" d="M720.86,136.26c-2.06,1.6-1.51,5.19.81,6.26,3.02.93,2.28-.11,5.89.19,3.59.18,11.95.37,18.46-.09,2.59-.44,5.89.63,7.87-1.53,2.2-2.4.15-6.61-3.07-6.31-8.12.36-17.24.8-22.58.31-2.42.14-5.4-.52-7.38,1.18Z"/>
  <path class="cls-2" d="M711.94,141.86c2.2-2.4.15-6.61-3.07-6.31-4.21.21-8.28.38-9.92.52-2.61.32-3.93,3.76-2.42,5.86,1.1,1.69,3.14,1.79,4.96,1.7,2.17-.16,4.34-.33,6.52-.41,1.43.03,2.98-.16,3.94-1.36Z"/>
  <path class="cls-2" d="M651.64,142.61c2.28.8,4.85.27,7.23.47,1.38.11,5.45.5,9.42.18,3.28.02,6.55-.23,9.83-.24,2.53-.28,5.33.36,7.71-.58,3.67-1.59,2.07-7.58-1.88-7.2-11.39.31-19.92.67-29.47.14-4.49-.88-6.97,4.92-2.85,7.22Z"/>
  <path class="cls-2" d="M622.41,139.96c.33,3.67,3.71,3.75,6.58,3.53,3.57-.02,7.13-.31,10.7-.33,4.93-.32,4.49-7.88-.43-7.63-3.44.03-6.88.27-10.32.34-2.95-.28-6.67.31-6.53,4.09Z"/>
  <path class="cls-2" d="M587.52,144.4c4.02.56,19.41-.87,27.27-.88,4.92-.32,4.5-7.88-.43-7.63-9.75.41-19.56.67-29.26,1.28-4.67,1.62-2.26,8.8,2.43,7.23Z"/>
  <path class="cls-2" d="M550.11,137.49c-2.2,2.4-.15,6.61,3.07,6.31,4.11.05,8.22-.03,12.34-.08,2.51-.03,3.58.6,7.77.54,3.98-.55,3.98-6.8.05-7.46-5.48-.78-10.99-.78-16.51-.56-2.25-.02-5.05-.71-6.72,1.25Z"/>
  <path class="cls-2" d="M541.94,144.02c3.68-1.59,2.07-7.58-1.88-7.2-9.9.47-20.85.12-27.96.06-3.29.08-4.81,4.61-2.26,6.7,1.29,1.18,3.01.89,4.61.91.23.01.36.02.43.02.17.01.39.03.7.05,3.52.27,7.03-.07,10.55.06,5.21-.04,10.75.56,15.82-.59Z"/>
  <path class="cls-2" d="M484.11,143.33c1.59,1.35,3.85.96,5.79,1.16,3.3-.18,6.91.86,10.06-.14,3.68-1.59,2.07-7.58-1.88-7.2-5.16-.05-9.43-.5-12.19-.42-3.04.39-4.1,4.68-1.77,6.6Z"/>
  <path class="cls-2" d="M464.47,144.47c3.29-.46,7.52,1.27,10.14-1.26,2.2-2.4.15-6.61-3.07-6.31-6.06-.32-12.07.41-18.12.68-5.4.12-12.36-.2-14.85,0-2.61.32-3.93,3.76-2.42,5.86,1.99,2.71,5.82,1.42,8.69,1.76,6.55.12,13.1-.07,19.62-.73Z"/>
  <path class="cls-2" d="M827.09,211.54c2.2-2.4.15-6.61-3.07-6.31-5.53.09-19.11-.36-20.85-.33-7.74-2.25-9.36,7.4-1.56,7.48,5.87.29,11.75.39,17.63.45,2.59-.26,5.88.91,7.84-1.29Z"/>
  <path class="cls-2" d="M759.29,211.77c1.69,1.4,4.1.92,6.14,1.25,5.28.38,10.57.68,15.86.75,1.86-.01,4.06.36,5.37-1.3,2.2-2.4.15-6.61-3.07-6.31-9.1.11-15.27-.75-22.53-.99-3.04.39-4.1,4.68-1.77,6.6Z"/>
  <path class="cls-2" d="M749.74,212.2c2.2-2.4.15-6.61-3.07-6.31-5.92.27-12.16-.47-17.92.89-3.68,1.59-2.07,7.58,1.88,7.2,4.72-.37,9.45-.44,14.18-.45,1.73,0,3.72.2,4.93-1.33Z"/>
  <path class="cls-2" d="M709.48,213.57c1.8.16,3.9.49,5.17-1.14,2.2-2.4.15-6.61-3.07-6.31-6.93-.53-13.89-.4-20.84-.51-4.93.32-4.5,7.88.43,7.63,6.1.1,12.22.02,18.31.34Z"/>
  <path class="cls-2" d="M652.23,208.41c1.12,3.39,5.16,2.48,7.92,2.83,5.92.34,11.85.43,17.77.69,4.93-.32,4.5-7.88-.43-7.63-6.21-.27-12.44-.36-18.65-.74-1.55.04-3.28-.6-4.7.23-1.74.72-2.48,2.88-1.91,4.62Z"/>
  <path class="cls-2" d="M642.79,212.49c3.68-1.59,2.07-7.58-1.88-7.2-3.31.36-8.69-1.64-10.16,2.5-1.24,3.67,2.49,5.59,5.63,5.04,2.1-.17,4.46.56,6.41-.34Z"/>
  <path class="cls-2" d="M625.59,212c2.2-2.4.15-6.61-3.07-6.31-6.85.64-13.71.47-20.57.27-.3-.04-.69-.1-.97-.18-.99-.21-2.05.01-2.88.58-3.15,2.1-1.37,7.1,2.3,7.08,6.34.35,12.7.51,19.04.11,2.08-.25,4.64.24,6.16-1.55Z"/>
  <path class="cls-2" d="M585.18,213.13c3.68-1.59,2.07-7.58-1.88-7.2-3.25-.1-6.49-.3-9.74-.39-2.45-.47-5.05,1.35-4.84,4,.22,3.7,4.11,3.75,6.92,3.68,3.13-.16,6.57.93,9.55-.09Z"/>
  <path class="cls-2" d="M530.84,211.63c1.33,1.17,3.13.94,4.78.99,5.91-.09,11.82-.36,17.73-.45,1.87-.1,4.1.27,5.43-1.39,2.2-2.4.15-6.61-3.07-6.31-7.96.48-16.23-.11-24.04.88-2.42,1-2.8,4.64-.81,6.27Z"/>
  <path class="cls-2" d="M503.78,209.12c.12,2.05,1.95,3.74,3.99,3.59,4.19-.1,8.72,1.31,12.76.29,3.68-1.59,2.07-7.58-1.88-7.2-3.77-.25-7.54-.48-11.31-.72-2.03.08-3.72,2-3.56,4.04Z"/>
  <path class="cls-2" d="M490.82,206.19c-6.6-.37-13.29-1.23-19.89-.62-6.16.11-5.17,9.09.83,7.57,7.17-.45,12.46.3,17.53.54.99.21,2.05-.01,2.88-.58,2.73-1.75,1.83-6.35-1.36-6.9Z"/>
  <path class="cls-2" d="M454.23,211.59c2.2-2.4.15-6.61-3.07-6.31-6.43.07-12.86.29-19.29.22-4.93.32-4.49,7.88.43,7.63,6.43.07,12.86-.16,19.29-.22,1.01-.06,1.98-.54,2.64-1.31Z"/>
  <path class="cls-2" d="M772.24,74.29c-.98-.13-2,0-2.82.59-3.86,3.29-.53,7.8,4.01,7.03,11.91-.45,23.78-1.8,35.72-1.93,5.78.72,6.74-7.52.87-7.68-9.71.27-19.41.72-29.08,1.64-2.89.19-5.79.2-8.69.34Z"/>
  <path class="cls-2" d="M738.16,77.67c.77,2.53,3.46,2.77,5.68,2.49,4.68.09,7.16.26,9.81.48,4.84.97,6.35-6.45,1.52-7.48-4.01-.34-8.03-.56-12.06-.62-3.01-.33-5.98,1.89-4.95,5.14Z"/>
  <path class="cls-2" d="M694.65,74.13c-2.06,1.6-1.51,5.19.81,6.26,3.02.93,2.28-.11,5.89.19,3.59.18,11.95.37,18.46-.09,2.59-.44,5.89.63,7.87-1.53,2.2-2.4.15-6.61-3.07-6.31-8.12.36-17.24.8-22.58.31-2.42.14-5.4-.52-7.38,1.18Z"/>
  <path class="cls-2" d="M685.73,79.73c2.2-2.4.15-6.61-3.07-6.31-4.21.21-8.28.38-9.92.52-2.61.32-3.93,3.76-2.42,5.86,1.1,1.69,3.14,1.79,4.96,1.7,2.17-.16,4.34-.33,6.52-.41,1.43.03,2.98-.16,3.94-1.36Z"/>
  <path class="cls-2" d="M625.43,80.48c2.27.8,4.85.27,7.23.47,1.38.1,5.45.5,9.42.18,3.28.02,6.55-.23,9.83-.24,2.53-.28,5.33.36,7.71-.58,3.67-1.58,2.07-7.58-1.88-7.2-11.39.31-19.92.67-29.47.14-4.49-.88-6.97,4.92-2.85,7.22Z"/>
  <path class="cls-2" d="M596.21,77.83c.33,3.67,3.71,3.75,6.58,3.53,3.57-.02,7.13-.31,10.7-.33,4.93-.32,4.49-7.88-.43-7.63-3.44.03-6.88.27-10.32.34-2.95-.28-6.67.31-6.53,4.09Z"/>
  <path class="cls-2" d="M561.31,82.26c4.02.56,19.41-.87,27.27-.88,4.92-.32,4.5-7.88-.43-7.63-9.75.41-19.56.67-29.26,1.28-4.67,1.62-2.26,8.8,2.43,7.23Z"/>
  <path class="cls-2" d="M523.9,75.35c-2.2,2.4-.15,6.61,3.07,6.31,4.11.05,8.22-.03,12.34-.08,2.51-.03,3.58.6,7.77.54,3.98-.55,3.98-6.8.05-7.46-5.48-.78-10.99-.78-16.51-.56-2.25-.02-5.05-.71-6.72,1.25Z"/>
  <path class="cls-2" d="M515.73,81.89c3.68-1.59,2.07-7.58-1.88-7.2-9.9.47-20.85.12-27.96.06-3.29.08-4.81,4.61-2.26,6.7,1.29,1.18,3.01.89,4.61.91.23.01.36.02.43.02.17.01.39.03.7.05,3.52.27,7.03-.07,10.55.06,5.21-.04,10.75.56,15.82-.59Z"/>
  <path class="cls-2" d="M471.86,75.01c-5.16-.05-9.43-.5-12.19-.42-3.04.39-4.1,4.68-1.77,6.6,1.59,1.35,3.85.96,5.79,1.16,3.3-.18,6.91.86,10.06-.14,3.68-1.59,2.07-7.58-1.88-7.2Z"/>
  <path class="cls-2" d="M782.06,95.12c-.98-.13-2,0-2.82.59-3.87,3.29-.53,7.8,4.01,7.03,11.91-.45,23.78-1.8,35.72-1.93,5.78.72,6.74-7.52.87-7.68-9.71.27-19.41.72-29.08,1.64-2.89.19-5.79.21-8.69.34Z"/>
  <path class="cls-2" d="M747.99,98.5c.77,2.53,3.46,2.77,5.68,2.49,4.68.09,7.16.26,9.81.48,4.84.97,6.35-6.45,1.52-7.48-4.01-.34-8.03-.56-12.06-.62-3.01-.33-5.98,1.89-4.95,5.14Z"/>
  <path class="cls-2" d="M704.47,94.96c-2.06,1.6-1.51,5.19.81,6.26,3.02.93,2.28-.11,5.89.19,3.59.18,11.95.37,18.46-.1,2.59-.44,5.89.63,7.87-1.53,2.2-2.4.15-6.61-3.07-6.31-8.12.36-17.24.8-22.58.31-2.42.14-5.4-.52-7.38,1.18Z"/>
  <path class="cls-2" d="M695.55,100.56c2.2-2.4.15-6.61-3.07-6.31-4.21.21-8.28.38-9.92.52-2.61.32-3.93,3.76-2.42,5.86,1.1,1.69,3.14,1.79,4.96,1.7,2.17-.16,4.34-.33,6.52-.41,1.43.03,2.98-.16,3.94-1.36Z"/>
  <path class="cls-2" d="M635.25,101.31c2.27.8,4.85.27,7.23.47,1.38.11,5.45.5,9.42.18,3.28.02,6.55-.23,9.83-.24,2.53-.28,5.33.36,7.71-.58,3.67-1.59,2.07-7.58-1.88-7.2-11.39.31-19.92.67-29.47.14-4.49-.88-6.97,4.92-2.85,7.22Z"/>
  <path class="cls-2" d="M606.03,98.66c.33,3.67,3.71,3.75,6.58,3.53,3.57-.02,7.13-.31,10.7-.33,4.93-.32,4.49-7.88-.43-7.63-3.44.03-6.88.27-10.32.34-2.95-.28-6.67.31-6.53,4.09Z"/>
  <path class="cls-2" d="M571.13,103.09c4.02.56,19.41-.87,27.27-.88,4.92-.32,4.5-7.88-.43-7.63-9.75.41-19.56.67-29.26,1.28-4.67,1.62-2.26,8.8,2.43,7.23Z"/>
  <path class="cls-2" d="M533.73,96.18c-2.2,2.4-.15,6.61,3.07,6.31,4.11.05,8.22-.03,12.34-.08,2.51-.03,3.58.6,7.77.54,3.98-.55,3.98-6.8.05-7.46-5.48-.78-10.99-.78-16.51-.56-2.25-.02-5.05-.71-6.72,1.25Z"/>
  <path class="cls-2" d="M525.55,102.72c3.68-1.59,2.07-7.58-1.88-7.2-9.9.47-20.85.12-27.96.06-3.29.08-4.81,4.61-2.26,6.7,1.29,1.18,3.01.89,4.61.91.23.01.36.02.43.02.17.01.39.03.7.05,3.52.27,7.03-.07,10.55.06,5.21-.04,10.75.56,15.82-.59Z"/>
  <path class="cls-2" d="M481.68,95.85c-5.16-.06-9.43-.5-12.19-.42-3.04.39-4.1,4.68-1.77,6.6,1.59,1.35,3.85.96,5.79,1.16,3.3-.18,6.91.86,10.06-.14,3.68-1.59,2.07-7.58-1.88-7.2Z"/>
  <path class="cls-2" d="M762.03,49.4c-.98-.13-2,0-2.82.59-3.86,3.29-.53,7.8,4.01,7.03,11.91-.45,23.78-1.8,35.72-1.93,5.78.72,6.74-7.52.87-7.68-9.71.27-19.41.72-29.08,1.65-2.89.19-5.79.21-8.69.34Z"/>
  <path class="cls-2" d="M727.96,52.79c.77,2.53,3.46,2.77,5.68,2.49,4.68.09,7.16.26,9.81.48,4.84.97,6.35-6.45,1.52-7.48-4.01-.34-8.03-.56-12.06-.62-3.01-.33-5.98,1.89-4.95,5.14Z"/>
  <path class="cls-2" d="M684.45,49.24c-2.06,1.6-1.51,5.19.81,6.26,3.02.93,2.28-.11,5.89.19,3.59.18,11.95.37,18.46-.09,2.59-.44,5.89.63,7.87-1.53,2.2-2.4.15-6.61-3.07-6.31-8.12.36-17.24.8-22.58.31-2.42.14-5.4-.52-7.38,1.18Z"/>
  <path class="cls-2" d="M675.53,54.84c2.2-2.4.15-6.61-3.07-6.31-4.21.21-8.28.38-9.92.52-2.61.32-3.93,3.76-2.42,5.86,1.1,1.69,3.14,1.79,4.96,1.7,2.17-.16,4.34-.33,6.52-.41,1.43.03,2.98-.16,3.94-1.36Z"/>
  <path class="cls-2" d="M615.22,55.59c2.27.8,4.85.27,7.23.47,1.38.11,5.45.5,9.42.18,3.28.02,6.55-.23,9.83-.24,2.53-.28,5.33.36,7.71-.58,3.67-1.59,2.07-7.58-1.88-7.2-11.39.31-19.92.67-29.47.14-4.49-.88-6.97,4.92-2.85,7.22Z"/>
  <path class="cls-2" d="M586,52.94c.33,3.67,3.71,3.75,6.58,3.53,3.57-.02,7.13-.31,10.7-.33,4.93-.32,4.49-7.88-.43-7.63-3.44.03-6.88.27-10.32.34-2.95-.28-6.67.31-6.53,4.09Z"/>
  <path class="cls-2" d="M551.1,57.38c4.02.56,19.41-.87,27.27-.88,4.92-.32,4.5-7.88-.43-7.63-9.75.41-19.56.67-29.26,1.28-4.67,1.62-2.26,8.8,2.43,7.23Z"/>
  <path class="cls-2" d="M513.7,50.47c-2.2,2.4-.15,6.61,3.07,6.31,4.11.05,8.22-.03,12.34-.08,2.51-.04,3.58.6,7.77.54,3.98-.55,3.98-6.8.05-7.46-5.48-.78-10.99-.78-16.51-.56-2.25-.02-5.05-.71-6.72,1.25Z"/>
  <path class="cls-2" d="M505.53,57c3.68-1.59,2.07-7.58-1.88-7.2-9.9.47-20.85.12-27.96.06-3.29.08-4.81,4.61-2.26,6.7,1.29,1.18,3.01.89,4.61.91.23.01.36.02.43.02.17.01.39.03.7.05,3.52.27,7.03-.07,10.55.06,5.21-.04,10.75.56,15.82-.59Z"/>
  <path class="cls-2" d="M461.65,50.13c-5.16-.05-9.43-.5-12.19-.42-3.04.39-4.1,4.68-1.77,6.6,1.59,1.35,3.85.96,5.79,1.16,3.3-.18,6.91.86,10.06-.14,3.68-1.59,2.07-7.58-1.88-7.2Z"/>
  <g>
    <path class="cls-1" d="M562.49,159.77h-66.9l-12.32,34.11h-21.13l55.45-152.5h23.11l55.23,152.5h-21.12l-12.32-34.11ZM556.77,143.48l-27.73-77.46-27.73,77.46h55.45Z"/>
    <path class="cls-1" d="M640.17,40.5v153.38h-20.03V40.5h20.03Z"/>
    <path class="cls-1" d="M765.49,49.85c12.25,6.24,21.64,15.15,28.17,26.74,6.53,11.59,9.79,25.23,9.79,40.93s-3.27,29.31-9.79,40.82c-6.53,11.52-15.92,20.32-28.17,26.41-12.25,6.09-26.74,9.13-43.46,9.13h-47.75V40.5h47.75c16.72,0,31.21,3.12,43.46,9.35ZM767.36,161.64c10.41-10.49,15.62-25.2,15.62-44.12s-5.25-33.96-15.73-44.67c-10.49-10.71-25.56-16.06-45.22-16.06h-27.73v120.59h27.73c19.8,0,34.91-5.24,45.33-15.73Z"/>
  </g>
  <g>
    <path d="M105.19,41.13v34.33h-62.06v27.29h45.77v32.79h-45.77v60.74H0V41.13h105.19Z"/>
    <path d="M123.34,100.98c4.62-9.53,10.93-16.87,18.92-22.01,8-5.13,16.91-7.7,26.74-7.7,8.51,0,15.84,1.69,22.01,5.06,6.16,3.38,10.93,7.92,14.3,13.64v-17.16h43.13v123.45h-43.13v-17.16c-3.38,5.72-8.18,10.27-14.41,13.64-6.24,3.38-13.53,5.06-21.9,5.06-9.83,0-18.74-2.56-26.74-7.7-8-5.13-14.3-12.51-18.92-22.12-4.62-9.61-6.93-20.8-6.93-33.56s2.31-23.91,6.93-33.45ZM198.82,115.73c-4.33-4.55-9.65-6.82-15.95-6.82s-11.81,2.24-16.06,6.71c-4.26,4.48-6.38,10.75-6.38,18.81s2.12,14.19,6.38,18.81c4.25,4.62,9.61,6.93,16.06,6.93s11.62-2.27,15.95-6.82c4.33-4.55,6.49-10.85,6.49-18.93s-2.17-14.16-6.49-18.7Z"/>
    <path d="M330.52,76.23c6.16-3.3,13.42-4.95,21.79-4.95,9.83,0,18.74,2.57,26.74,7.7,7.99,5.14,14.3,12.47,18.92,22.01,4.62,9.54,6.93,20.69,6.93,33.45s-2.31,23.95-6.93,33.56c-4.62,9.61-10.93,16.98-18.92,22.12-8,5.14-16.91,7.7-26.74,7.7-8.36,0-15.62-1.65-21.79-4.95-6.16-3.3-10.93-7.88-14.3-13.75v17.16h-43.13V33.43h43.13v56.55c3.37-5.87,8.14-10.45,14.3-13.75ZM354.62,115.62c-4.33-4.47-9.65-6.71-15.95-6.71s-11.63,2.28-15.95,6.82c-4.33,4.55-6.49,10.78-6.49,18.7s2.16,14.38,6.49,18.93c4.33,4.55,9.64,6.82,15.95,6.82s11.62-2.31,15.95-6.93c4.33-4.62,6.49-10.89,6.49-18.81s-2.17-14.34-6.49-18.81Z"/>
  </g>
</svg>